<svg version="1.1" id="Layer_1" xmlns="http://www.w3.org/2000/svg" xmlns:xlink="http://www.w3.org/1999/xlink" x="0px" y="0px"
	 width="100%" viewBox="0 0 1077 1077" enable-background="new 0 0 1077 1077" xml:space="preserve">
<path fill="#1e3754" opacity="1.000000" stroke="none" 
	d="
M594.000000,1078.000000 
	C396.022858,1078.000000 198.545715,1078.000000 1.034292,1078.000000 
	C1.034292,719.064392 1.034292,360.128845 1.034292,1.096624 
	C359.894012,1.096624 718.788086,1.096624 1077.841064,1.096624 
	C1077.841064,359.999939 1077.841064,718.999939 1077.841064,1078.000000 
	C916.795105,1078.000000 755.647522,1078.000000 594.000000,1078.000000 
M692.000000,655.395813 
	C692.000000,658.485107 692.000000,661.574402 692.000000,664.663696 
	C691.278442,664.892212 690.556885,665.120728 689.835266,665.349243 
	C688.853210,664.030151 688.016907,662.565613 686.867554,661.413330 
	C664.559021,639.047607 642.212830,616.719421 619.876709,594.381226 
	C596.427063,570.929565 572.971863,547.483398 549.534607,524.019348 
	C535.363953,509.832550 521.196655,495.642212 507.076385,481.405304 
	C496.082947,470.321075 485.198395,459.128906 474.205231,448.044403 
	C455.340485,429.023041 436.502014,409.974640 417.512024,391.078796 
	C403.883698,377.517975 389.907990,364.305756 376.304779,350.720215 
	C362.991852,337.424561 350.179840,323.621216 336.695007,310.506439 
	C330.520294,304.501190 324.965302,296.795746 315.289948,296.100769 
	C308.161072,295.588684 300.964386,295.924469 293.801270,296.059967 
	C292.253082,296.089264 290.422974,296.485687 289.230133,297.385590 
	C284.062134,301.284332 278.223602,304.751343 274.298370,309.699615 
	C271.000610,313.856964 268.265503,319.841614 268.254242,325.023743 
	C267.938049,471.002960 268.014465,616.982971 267.922791,762.962769 
	C267.920288,766.916809 269.021088,768.132202 273.014618,768.085571 
	C290.176575,767.885132 307.342224,768.000488 324.506531,767.999756 
	C330.998474,767.999512 330.999786,767.998291 330.999817,761.443115 
	C331.000092,644.792542 331.000000,528.141907 331.000000,411.491333 
	C331.000000,407.003540 331.000000,402.515717 331.000000,396.771515 
	C333.407837,399.039734 334.732574,400.224152 335.987244,401.478668 
	C427.245087,492.732605 518.497253,583.992188 609.750610,675.250610 
	C614.489685,679.989990 619.277161,684.681702 623.970154,689.466187 
	C639.237610,705.031433 654.477478,720.623779 669.710815,736.222351 
	C671.534424,738.089661 673.132568,740.190247 675.046448,741.953430 
	C678.830444,745.439514 683.292969,748.325317 686.536011,752.237488 
	C697.386719,765.327148 711.419678,773.842773 729.538452,768.198669 
	C745.582092,763.201172 756.892395,748.939453 756.909607,732.933167 
	C757.064331,588.953186 757.000000,444.972992 757.000000,300.992828 
	C757.000000,299.505646 757.000000,298.018494 757.000000,295.898987 
	C735.270508,295.898987 713.757202,295.898987 692.000000,295.898987 
	C692.000000,415.840454 692.000000,535.131653 692.000000,655.395813 
M530.969666,943.323425 
	C532.310791,939.908020 534.034546,936.588867 534.922546,933.059448 
	C537.780945,921.698730 542.436829,910.296875 542.635132,898.845703 
	C543.489075,849.537842 542.925110,800.206360 543.091064,750.884216 
	C543.112732,744.437988 543.018005,739.014893 536.681396,734.806519 
	C532.146790,731.794861 529.037292,726.685791 525.126343,722.674133 
	C520.121704,717.540649 514.924011,712.596008 509.857300,707.522339 
	C501.735352,699.389160 493.723755,691.143372 485.461823,683.155823 
	C484.447937,682.175598 481.917175,681.856140 480.588043,682.415527 
	C479.632812,682.817505 479.063049,685.202942 479.095947,686.686401 
	C479.196869,691.236389 479.952209,695.777710 479.957336,700.322998 
	C480.022186,757.977173 479.968140,815.631531 480.026062,873.285706 
	C480.038055,885.250305 480.036377,897.226074 475.906830,908.629272 
	C473.688843,914.754028 471.671326,921.415771 467.702057,926.332642 
	C461.806610,933.635437 454.625275,940.049194 447.334503,946.042358 
	C435.662445,955.636902 421.568542,959.637878 406.765686,959.754333 
	C399.013000,959.815247 390.956390,958.201294 383.553741,955.770264 
	C375.577789,953.151001 367.330414,949.841675 360.735626,944.819031 
	C341.242737,929.973022 331.378754,909.751831 331.008057,885.100830 
	C330.950439,881.269165 331.648193,877.276245 330.758179,873.662964 
	C330.218567,871.472351 327.335510,868.290466 325.442078,868.246033 
	C307.788940,867.831299 290.121246,867.932739 272.461151,868.154907 
	C271.293365,868.169556 269.110046,870.436707 269.156464,871.585205 
	C269.899445,889.968994 266.844086,908.456604 273.684998,926.641296 
	C278.406891,939.193054 283.260651,951.530518 291.081573,962.301147 
	C297.300903,970.866333 304.393646,978.969360 312.068542,986.255981 
	C319.372803,993.190735 327.472870,999.562744 336.076141,1004.773682 
	C344.164642,1009.672913 353.121216,1013.502075 362.147552,1016.390808 
	C371.734344,1019.458801 381.780609,1022.161072 391.754181,1022.713806 
	C409.189026,1023.679932 426.837891,1024.192261 443.756531,1018.010376 
	C448.528839,1016.266663 453.637238,1015.301819 458.197388,1013.145996 
	C469.373383,1007.862732 480.608551,1002.564636 489.831299,994.011719 
	C497.700287,986.714050 506.464600,980.138611 513.159790,971.886353 
	C520.010620,963.442139 524.826721,953.347107 530.969666,943.323425 
M483.128113,326.010712 
	C485.676453,328.116821 488.467102,329.992920 490.726379,332.373383 
	C496.809998,338.783386 502.453979,345.619080 508.663605,351.899048 
	C518.041626,361.383362 527.719788,370.572784 537.365112,379.788300 
	C538.423828,380.799896 540.103699,381.161407 541.495422,381.824432 
	C542.327759,380.005707 543.723999,378.227509 543.858337,376.358612 
	C544.052307,373.660339 543.044739,370.896515 543.042114,368.160217 
	C542.986511,310.173309 542.836243,252.185562 543.114563,194.199951 
	C543.184692,179.595718 543.416504,164.956024 548.802002,150.809616 
	C552.790710,140.332367 559.143127,131.754303 566.633362,123.893517 
	C572.365723,117.877571 579.506104,113.739792 587.146362,110.243347 
	C597.806274,105.364998 608.945618,103.296356 620.471008,103.116493 
	C624.453186,103.054359 628.556885,103.978889 632.428345,105.076134 
	C639.783081,107.160576 647.708191,108.517578 654.124451,112.321991 
	C663.382141,117.811218 671.776855,124.552826 678.306641,133.843445 
	C687.182617,146.472046 691.343262,160.305374 692.893066,175.183945 
	C693.537292,181.368835 693.000000,187.676819 693.000000,194.000000 
	C713.020630,194.000000 732.345581,193.882614 751.666992,194.091797 
	C755.904114,194.137665 757.207214,192.442764 757.003357,188.664337 
	C756.657349,182.248367 756.622803,175.799637 755.927734,169.422409 
	C755.032227,161.206253 753.907532,152.990906 752.352966,144.876480 
	C750.111816,133.178131 745.052185,122.527359 739.586304,111.997787 
	C733.096680,99.496040 724.833130,88.185516 714.756348,78.657722 
	C704.924805,69.361748 693.986389,61.244270 681.683838,54.914436 
	C666.494080,47.099075 650.653687,41.383369 633.809937,40.249866 
	C612.090637,38.788258 590.103516,39.012016 569.693604,48.153042 
	C557.783813,53.487091 545.818970,59.339966 535.286621,66.916367 
	C525.896606,73.671074 518.256958,82.941704 510.218445,91.454819 
	C506.663361,95.219849 503.408539,99.544998 501.103027,104.158394 
	C495.527100,115.315941 490.129486,126.611954 485.577301,138.212112 
	C483.088440,144.554459 481.237427,151.620865 481.194122,158.374207 
	C480.846954,212.526443 480.988220,266.681885 481.055389,320.836304 
	C481.057465,322.504822 481.879791,324.172272 483.128113,326.010712 
M739.965759,984.645752 
	C743.826172,994.201721 749.456543,1002.994202 757.762695,1008.656311 
	C763.525635,1012.584839 764.227417,1016.584595 764.103149,1022.398499 
	C763.965942,1028.818115 766.088135,1034.513062 772.307617,1037.666504 
	C773.631042,1038.337524 775.480469,1038.901855 776.720642,1038.467651 
	C777.500488,1038.194458 777.848755,1035.988525 777.948425,1034.617432 
	C778.165161,1031.637939 777.726501,1028.574707 778.220764,1025.658325 
	C779.469421,1018.289978 776.748840,1011.375488 772.481812,1006.644104 
	C766.886292,1000.439636 763.564087,994.501709 763.903992,986.101562 
	C764.335083,975.445679 762.053955,965.224792 757.197021,955.630432 
	C755.974060,953.214478 756.769897,951.618835 759.143799,949.873596 
	C765.156311,945.453674 770.263611,940.044128 772.655029,932.733093 
	C776.831909,919.963440 783.484985,909.429260 796.441345,903.780029 
	C800.068359,902.198547 803.742371,899.868164 806.312927,896.933533 
	C809.649475,893.124207 808.097168,888.409180 806.540039,884.010193 
	C804.662231,884.010193 802.997986,883.938477 801.345764,884.048828 
	C800.762146,884.087769 800.218628,884.595154 799.639343,884.848755 
	C790.012512,889.061646 782.858215,896.151001 778.111328,905.245483 
	C773.462280,914.152344 770.561279,923.908875 764.087158,931.945312 
	C759.555969,937.569885 754.894714,942.979492 747.416504,943.887085 
	C736.513672,945.210266 726.535217,941.944458 717.532776,935.854065 
	C714.004883,933.467407 710.842773,930.543579 707.484192,927.902466 
	C698.091431,920.516296 688.839539,912.938171 679.234497,905.838440 
	C670.496399,899.379578 661.826050,892.888489 650.998352,889.688904 
	C646.834839,888.458557 640.241455,889.700806 638.829712,882.773254 
	C638.741394,882.339661 636.842041,881.980896 635.837036,882.085327 
	C633.183777,882.361023 630.559021,882.910828 626.798401,883.539490 
	C623.675476,887.248413 619.433105,892.218689 615.268982,897.253662 
	C611.857544,901.378296 612.481323,904.880737 616.701172,908.005615 
	C621.275818,911.393250 626.273254,912.486267 631.882263,912.192261 
	C632.853699,912.141357 634.442078,914.482361 634.796143,915.947937 
	C634.976257,916.693298 632.764587,918.987366 632.111633,918.811157 
	C626.370422,917.262451 620.966614,917.670898 615.436157,919.906372 
	C612.006165,921.292786 608.180298,925.418762 609.184753,928.931152 
	C609.835693,931.207397 611.903259,933.690002 614.003540,934.723633 
	C615.385132,935.403625 619.180176,934.218689 619.767090,932.912842 
	C621.630859,928.765869 623.884399,929.990784 626.719727,931.265869 
	C633.943909,934.514771 641.287537,937.444275 649.443115,936.967346 
	C650.855164,936.884766 652.368164,936.631409 653.619019,936.017639 
	C659.062256,933.346985 662.784058,933.642334 667.706848,938.726562 
	C679.785339,951.201172 695.677002,956.249023 712.796021,956.899292 
	C721.729431,957.238586 731.151306,962.840576 734.122498,972.798157 
	C735.294312,976.725159 737.683350,980.288940 739.965759,984.645752 
z"/>
<path fill="#FFFFFF" opacity="1.000000" stroke="none" 
	d="
M692.000000,654.909302 
	C692.000000,535.131653 692.000000,415.840454 692.000000,295.898987 
	C713.757202,295.898987 735.270508,295.898987 757.000000,295.898987 
	C757.000000,298.018494 757.000000,299.505646 757.000000,300.992828 
	C757.000000,444.972992 757.064331,588.953186 756.909607,732.933167 
	C756.892395,748.939453 745.582092,763.201172 729.538452,768.198669 
	C711.419678,773.842773 697.386719,765.327148 686.536011,752.237488 
	C683.292969,748.325317 678.830444,745.439514 675.046448,741.953430 
	C673.132568,740.190247 671.534424,738.089661 669.710815,736.222351 
	C654.477478,720.623779 639.237610,705.031433 623.970154,689.466187 
	C619.277161,684.681702 614.489685,679.989990 609.750610,675.250610 
	C518.497253,583.992188 427.245087,492.732605 335.987244,401.478668 
	C334.732574,400.224152 333.407837,399.039734 331.000000,396.771515 
	C331.000000,402.515717 331.000000,407.003540 331.000000,411.491333 
	C331.000000,528.141907 331.000092,644.792542 330.999817,761.443115 
	C330.999786,767.998291 330.998474,767.999512 324.506531,767.999756 
	C307.342224,768.000488 290.176575,767.885132 273.014618,768.085571 
	C269.021088,768.132202 267.920288,766.916809 267.922791,762.962769 
	C268.014465,616.982971 267.938049,471.002960 268.254242,325.023743 
	C268.265503,319.841614 271.000610,313.856964 274.298370,309.699615 
	C278.223602,304.751343 284.062134,301.284332 289.230133,297.385590 
	C290.422974,296.485687 292.253082,296.089264 293.801270,296.059967 
	C300.964386,295.924469 308.161072,295.588684 315.289948,296.100769 
	C324.965302,296.795746 330.520294,304.501190 336.695007,310.506439 
	C350.179840,323.621216 362.991852,337.424561 376.304779,350.720215 
	C389.907990,364.305756 403.883698,377.517975 417.512024,391.078796 
	C436.502014,409.974640 455.340485,429.023041 474.205231,448.044403 
	C485.198395,459.128906 496.082947,470.321075 507.076385,481.405304 
	C521.196655,495.642212 535.363953,509.832550 549.534607,524.019348 
	C572.971863,547.483398 596.427063,570.929565 619.876709,594.381226 
	C642.212830,616.719421 664.559021,639.047607 686.867554,661.413330 
	C688.016907,662.565613 688.853210,664.030151 689.835266,665.349243 
	C690.556885,665.120728 691.278442,664.892212 692.000000,664.663696 
	C692.000000,661.574402 692.000000,658.485107 692.000000,654.909302 
z"/>
<path fill="#FFFFFF" opacity="1.000000" stroke="none" 
	d="
M530.751587,943.649048 
	C524.826721,953.347107 520.010620,963.442139 513.159790,971.886353 
	C506.464600,980.138611 497.700287,986.714050 489.831299,994.011719 
	C480.608551,1002.564636 469.373383,1007.862732 458.197388,1013.145996 
	C453.637238,1015.301819 448.528839,1016.266663 443.756531,1018.010376 
	C426.837891,1024.192261 409.189026,1023.679932 391.754181,1022.713806 
	C381.780609,1022.161072 371.734344,1019.458801 362.147552,1016.390808 
	C353.121216,1013.502075 344.164642,1009.672913 336.076141,1004.773682 
	C327.472870,999.562744 319.372803,993.190735 312.068542,986.255981 
	C304.393646,978.969360 297.300903,970.866333 291.081573,962.301147 
	C283.260651,951.530518 278.406891,939.193054 273.684998,926.641296 
	C266.844086,908.456604 269.899445,889.968994 269.156464,871.585205 
	C269.110046,870.436707 271.293365,868.169556 272.461151,868.154907 
	C290.121246,867.932739 307.788940,867.831299 325.442078,868.246033 
	C327.335510,868.290466 330.218567,871.472351 330.758179,873.662964 
	C331.648193,877.276245 330.950439,881.269165 331.008057,885.100830 
	C331.378754,909.751831 341.242737,929.973022 360.735626,944.819031 
	C367.330414,949.841675 375.577789,953.151001 383.553741,955.770264 
	C390.956390,958.201294 399.013000,959.815247 406.765686,959.754333 
	C421.568542,959.637878 435.662445,955.636902 447.334503,946.042358 
	C454.625275,940.049194 461.806610,933.635437 467.702057,926.332642 
	C471.671326,921.415771 473.688843,914.754028 475.906830,908.629272 
	C480.036377,897.226074 480.038055,885.250305 480.026062,873.285706 
	C479.968140,815.631531 480.022186,757.977173 479.957336,700.322998 
	C479.952209,695.777710 479.196869,691.236389 479.095947,686.686401 
	C479.063049,685.202942 479.632812,682.817505 480.588043,682.415527 
	C481.917175,681.856140 484.447937,682.175598 485.461823,683.155823 
	C493.723755,691.143372 501.735352,699.389160 509.857300,707.522339 
	C514.924011,712.596008 520.121704,717.540649 525.126343,722.674133 
	C529.037292,726.685791 532.146790,731.794861 536.681396,734.806519 
	C543.018005,739.014893 543.112732,744.437988 543.091064,750.884216 
	C542.925110,800.206360 543.489075,849.537842 542.635132,898.845703 
	C542.436829,910.296875 537.780945,921.698730 534.922546,933.059448 
	C534.034546,936.588867 532.310791,939.908020 530.751587,943.649048 
z"/>
<path fill="#FFFFFF" opacity="1.000000" stroke="none" 
	d="
M482.723907,325.925476 
	C481.879791,324.172272 481.057465,322.504822 481.055389,320.836304 
	C480.988220,266.681885 480.846954,212.526443 481.194122,158.374207 
	C481.237427,151.620865 483.088440,144.554459 485.577301,138.212112 
	C490.129486,126.611954 495.527100,115.315941 501.103027,104.158394 
	C503.408539,99.544998 506.663361,95.219849 510.218445,91.454819 
	C518.256958,82.941704 525.896606,73.671074 535.286621,66.916367 
	C545.818970,59.339966 557.783813,53.487091 569.693604,48.153042 
	C590.103516,39.012016 612.090637,38.788258 633.809937,40.249866 
	C650.653687,41.383369 666.494080,47.099075 681.683838,54.914436 
	C693.986389,61.244270 704.924805,69.361748 714.756348,78.657722 
	C724.833130,88.185516 733.096680,99.496040 739.586304,111.997787 
	C745.052185,122.527359 750.111816,133.178131 752.352966,144.876480 
	C753.907532,152.990906 755.032227,161.206253 755.927734,169.422409 
	C756.622803,175.799637 756.657349,182.248367 757.003357,188.664337 
	C757.207214,192.442764 755.904114,194.137665 751.666992,194.091797 
	C732.345581,193.882614 713.020630,194.000000 693.000000,194.000000 
	C693.000000,187.676819 693.537292,181.368835 692.893066,175.183945 
	C691.343262,160.305374 687.182617,146.472046 678.306641,133.843445 
	C671.776855,124.552826 663.382141,117.811218 654.124451,112.321991 
	C647.708191,108.517578 639.783081,107.160576 632.428345,105.076134 
	C628.556885,103.978889 624.453186,103.054359 620.471008,103.116493 
	C608.945618,103.296356 597.806274,105.364998 587.146362,110.243347 
	C579.506104,113.739792 572.365723,117.877571 566.633362,123.893517 
	C559.143127,131.754303 552.790710,140.332367 548.802002,150.809616 
	C543.416504,164.956024 543.184692,179.595718 543.114563,194.199951 
	C542.836243,252.185562 542.986511,310.173309 543.042114,368.160217 
	C543.044739,370.896515 544.052307,373.660339 543.858337,376.358612 
	C543.723999,378.227509 542.327759,380.005707 541.495422,381.824432 
	C540.103699,381.161407 538.423828,380.799896 537.365112,379.788300 
	C527.719788,370.572784 518.041626,361.383362 508.663605,351.899048 
	C502.453979,345.619080 496.809998,338.783386 490.726379,332.373383 
	C488.467102,329.992920 485.676453,328.116821 482.723907,325.925476 
z"/>
<path fill="#FFFFFF" opacity="1.000000" stroke="none" 
	d="
M739.741943,984.331909 
	C737.683350,980.288940 735.294312,976.725159 734.122498,972.798157 
	C731.151306,962.840576 721.729431,957.238586 712.796021,956.899292 
	C695.677002,956.249023 679.785339,951.201172 667.706848,938.726562 
	C662.784058,933.642334 659.062256,933.346985 653.619019,936.017639 
	C652.368164,936.631409 650.855164,936.884766 649.443115,936.967346 
	C641.287537,937.444275 633.943909,934.514771 626.719727,931.265869 
	C623.884399,929.990784 621.630859,928.765869 619.767090,932.912842 
	C619.180176,934.218689 615.385132,935.403625 614.003540,934.723633 
	C611.903259,933.690002 609.835693,931.207397 609.184753,928.931152 
	C608.180298,925.418762 612.006165,921.292786 615.436157,919.906372 
	C620.966614,917.670898 626.370422,917.262451 632.111633,918.811157 
	C632.764587,918.987366 634.976257,916.693298 634.796143,915.947937 
	C634.442078,914.482361 632.853699,912.141357 631.882263,912.192261 
	C626.273254,912.486267 621.275818,911.393250 616.701172,908.005615 
	C612.481323,904.880737 611.857544,901.378296 615.268982,897.253662 
	C619.433105,892.218689 623.675476,887.248413 626.798401,883.539490 
	C630.559021,882.910828 633.183777,882.361023 635.837036,882.085327 
	C636.842041,881.980896 638.741394,882.339661 638.829712,882.773254 
	C640.241455,889.700806 646.834839,888.458557 650.998352,889.688904 
	C661.826050,892.888489 670.496399,899.379578 679.234497,905.838440 
	C688.839539,912.938171 698.091431,920.516296 707.484192,927.902466 
	C710.842773,930.543579 714.004883,933.467407 717.532776,935.854065 
	C726.535217,941.944458 736.513672,945.210266 747.416504,943.887085 
	C754.894714,942.979492 759.555969,937.569885 764.087158,931.945312 
	C770.561279,923.908875 773.462280,914.152344 778.111328,905.245483 
	C782.858215,896.151001 790.012512,889.061646 799.639343,884.848755 
	C800.218628,884.595154 800.762146,884.087769 801.345764,884.048828 
	C802.997986,883.938477 804.662231,884.010193 806.540039,884.010193 
	C808.097168,888.409180 809.649475,893.124207 806.312927,896.933533 
	C803.742371,899.868164 800.068359,902.198547 796.441345,903.780029 
	C783.484985,909.429260 776.831909,919.963440 772.655029,932.733093 
	C770.263611,940.044128 765.156311,945.453674 759.143799,949.873596 
	C756.769897,951.618835 755.974060,953.214478 757.197021,955.630432 
	C762.053955,965.224792 764.335083,975.445679 763.903992,986.101562 
	C763.564087,994.501709 766.886292,1000.439636 772.481812,1006.644104 
	C776.748840,1011.375488 779.469421,1018.289978 778.220764,1025.658325 
	C777.726501,1028.574707 778.165161,1031.637939 777.948425,1034.617432 
	C777.848755,1035.988525 777.500488,1038.194458 776.720642,1038.467651 
	C775.480469,1038.901855 773.631042,1038.337524 772.307617,1037.666504 
	C766.088135,1034.513062 763.965942,1028.818115 764.103149,1022.398499 
	C764.227417,1016.584595 763.525635,1012.584839 757.762695,1008.656311 
	C749.456543,1002.994202 743.826172,994.201721 739.741943,984.331909 
z"/>
</svg>